# xmcd CD database file
#
# Track frame offsets:
#	150
#	22195
#	45317
#	68805
#	86092
#	102087
#	118830
#	137860
#	154150
#
# Disc length: 2245 seconds
#
# Revision: 3
# Processed by: cddbd v1.5.2PL0 Copyright (c) Steve Scherf et al.
# Submitted via: CDex 1.51
#
DISCID=7708c309
DTITLE=Paul Butterfield's Better Days - Better Days
DYEAR=1973
DGENRE=Blues
TTITLE0=New Walkin' Blues
TTITLE1=Please Send Me Someone To Love
TTITLE2=Broke My Baby's Heart
TTITLE3=Done A Lot Of Wrong Things
TTITLE4=Baby Please Don't Go
TTITLE5=Buried Alive In The Blues
TTITLE6=Rule The Road
TTITLE7=Nobody Fault But Mine
TTITLE8=Highway
EXTD=YEAR: 1973
EXTT0=
EXTT1=
EXTT2=
EXTT3=
EXTT4=
EXTT5=
EXTT6=
EXTT7=
EXTT8=
PLAYORDER=
